Patient4_TMGait_0pt5_02_right_39_GRF.mot
version=1
nRows=78
nColumns=19
inDegrees=no
endheader
time	F1x	F1y	F1z	M1x	M1y	M1z	F2x	F2y	F2z	M2x	M2y	M2z	EC1x	EC1y	EC1z	EC2x	EC2y	EC2z
50.96	9.8765	773.7059	50.5986	-265.2479	-42.7968	738.8478	-1.442	-6.5857	-8.0994	0.59414	5.3522	-10.145	-0.0592	0.0182	-0.0073	-0.0462	0.0165	0.9585
50.973	7.4559	762.4596	51.5775	-261.9771	-44.2567	725.8856	-1.1126	-3.7682	-5.4313	0.65933	3.6055	-6.1864	-0.0592	0.0182	-0.0073	-0.0462	0.0165	0.9585
50.986	6.0389	751.3955	51.8995	-258.8181	-44.7331	712.4126	-0.84364	-1.3461	-3.1994	0.72925	2.1685	-2.7927	-0.0592	0.0182	-0.0073	-0.0462	0.0165	0.9585
50.999	5.7651	741.5518	51.6123	-256.1112	-44.224	699.4933	-0.66004	0.54499	-1.5139	0.80122	1.102	-0.1489	-0.0592	0.0182	-0.0073	-0.0462	0.0165	0.9585
51.012	6.5599	733.6905	50.8718	-254.1107	-42.8981	687.9516	-0.55171	1.9039	-0.36348	0.87184	0.39384	1.7439	-0.0592	0.0182	-0.0073	-0.0462	0.0165	0.9585
51.025	8.2373	728.2463	49.9235	-252.9594	-41.0413	678.3058	-0.51625	2.7906	0.33963	0.9344	-0.013744	2.9793	-0.0592	0.0182	-0.0073	-0.0462	0.0165	0.9585
51.038	10.5782	725.3596	48.9837	-252.6974	-38.926	670.7677	-0.54015	3.2827	0.69867	0.97806	-0.18738	3.678	-0.0592	0.0182	-0.0073	-0.0462	0.0165	0.9585
51.051	13.3719	724.9415	48.2332	-253.2851	-36.7848	665.3078	-0.61159	3.4388	0.82361	0.98425	-0.20143	3.9392	-0.0592	0.0182	-0.0073	-0.0462	0.0165	0.9585
51.064	16.4646	726.7839	47.7655	-254.6408	-34.7598	661.7819	-0.73378	3.287	0.80505	0.92761	-0.11225	3.8288	-0.0592	0.0182	-0.0073	-0.0462	0.0165	0.9585
51.077	19.7347	730.6112	47.6041	-256.66	-32.9244	659.9893	-0.89163	2.8188	0.71336	0.77655	0.028376	3.3525	-0.0592	0.0182	-0.0073	-0.0462	0.0165	0.9585
51.09	23.0705	736.0848	47.7166	-259.2146	-31.2998	659.6832	-1.0794	2.0036	0.59156	0.49786	0.18716	2.4901	-0.0592	0.0182	-0.0073	-0.0462	0.0165	0.9585
51.103	26.3793	742.782	48.0389	-262.1442	-29.8693	660.5449	-1.2648	0.78258	0.46673	0.056766	0.3354	1.1871	-0.0592	0.0182	-0.0073	-0.0462	0.0165	0.9585
51.116	29.5818	750.172	48.5061	-265.2466	-28.608	662.172	-1.4115	-0.87761	0.35729	-0.56719	0.44899	-0.58001	-0.0592	0.0182	-0.0073	-0.0462	0.0165	0.9585
51.129	32.6126	757.6268	49.0519	-268.2814	-27.4879	664.0727	-1.4474	-2.9573	0.27537	-1.3684	0.49416	-2.7914	-0.0592	0.0182	-0.0073	-0.0462	0.0165	0.9585
51.142	35.378	764.3931	49.6409	-270.9625	-26.5164	665.6574	-1.2767	-5.316	0.23322	-2.2899	0.42351	-5.2979	-0.0592	0.0182	-0.0073	-0.0462	0.0165	0.9585
51.155	37.7691	769.5893	50.2498	-272.9608	-25.7214	666.2452	-0.78258	-7.6119	0.24426	-3.1929	0.17791	-7.7385	-0.0592	0.0182	-0.0073	-0.0462	0.0165	0.9585
51.168	39.6732	772.3543	50.8879	-273.9528	-25.1605	665.1847	0.17438	-9.2247	0.32232	-3.8246	-0.31022	-9.4612	-0.0592	0.0182	-0.0073	-0.0462	0.0165	0.9585
51.181	41.044	772.0585	51.5499	-273.7008	-24.8592	661.9998	1.7295	-9.1609	0.47921	-3.7844	-1.1034	-9.4141	-0.0592	0.0182	-0.0073	-0.0462	0.0165	0.9585
51.194	41.9209	768.4007	52.2385	-272.0912	-24.8179	656.4622	3.9942	-6.0194	0.73737	-2.5086	-2.2595	-6.1204	-0.0592	0.0182	-0.0073	-0.0462	0.0165	0.9585
51.207	42.4626	761.3828	52.9268	-269.1309	-24.9746	648.5621	6.9809	2.0228	1.1127	0.73244	-3.7906	2.3543	-0.0592	0.0182	-0.0073	-0.0462	0.0165	0.9585
51.22	42.8532	751.1655	53.5666	-264.8987	-25.2327	638.4091	10.5335	17.0571	1.6077	6.7767	-5.6221	18.2231	-0.0592	0.0182	-0.0073	-0.0462	0.0165	0.9585
51.233	43.2647	737.9055	54.0526	-259.4836	-25.4479	626.1006	14.204	41.1307	2.1867	16.4449	-7.5195	43.6627	-0.0592	0.0182	-0.0073	-0.0462	0.0165	0.9585
51.246	43.7952	721.5642	54.2255	-252.9154	-25.4514	611.5684	17.1343	75.6829	2.7694	30.3155	-9.0427	80.2141	-0.0592	0.0182	-0.0073	-0.0462	0.0165	0.9585
51.259	44.4474	701.8075	53.8581	-245.1276	-25.0514	594.4968	17.9648	120.6807	3.1919	48.38	-9.4823	127.8711	-0.0592	0.0182	-0.0073	-0.0462	0.0165	0.9585
51.272	45.1302	678.0746	52.6905	-235.9826	-24.056	574.3495	15.0973	173.6978	3.2508	69.6689	-8.0175	184.1181	-0.0592	0.0182	-0.0073	-0.0462	0.0165	0.9585
51.285	45.7016	649.8229	50.5201	-225.3537	-22.3325	550.5818	8.1128	229.7531	2.5427	92.1588	-4.0888	243.7382	-0.0592	0.0182	-0.0073	-0.0462	0.0165	0.9585
51.298	46.0437	616.8139	47.2915	-213.2158	-19.8549	522.8776	-1.0388	282.6488	0.44347	113.3095	2.1359	300.1081	-0.0592	0.0182	-0.0073	-0.0462	0.0165	0.9585
51.311	46.0479	579.1858	43.1936	-199.6526	-16.7927	491.246	-10.0183	327.2811	-2.8575	131.0604	9.4644	347.5923	-0.0592	0.0182	-0.0073	-0.0462	0.0165	0.9585
51.324	45.5519	537.1968	38.6146	-184.761	-13.4958	455.8475	-17.3915	361.8413	-6.9817	144.6875	16.8886	384.1059	-0.0592	0.0182	-0.0073	-0.0462	0.0165	0.9585
51.337	44.3684	491.2515	33.9866	-168.6595	-10.3669	417.024	-22.6873	387.9948	-11.1968	154.8827	23.4526	411.3942	-0.0592	0.0182	-0.0073	-0.0462	0.0165	0.9585
51.35	42.3638	442.0505	29.5947	-151.5567	-7.6803	375.3958	-26.1111	409.369	-15.0601	163.1256	28.7839	433.3467	-0.0592	0.0182	-0.0073	-0.0462	0.0165	0.9585
51.363	39.401	390.5941	25.5421	-133.7615	-5.5729	331.8526	-28.1479	430.1727	-18.2862	171.1199	32.8145	454.4254	-0.0592	0.0182	-0.0073	-0.0462	0.0165	0.9585
51.376	35.3778	338.1125	21.7587	-115.6713	-4.039	287.4649	-29.3176	454.2877	-21.1123	180.4006	36.024	478.7114	-0.0592	0.0182	-0.0073	-0.0462	0.0165	0.9585
51.389	30.2398	286.0424	18.1742	-97.7589	-3.0564	243.4749	-30.099	484.5392	-23.9087	192.06	39.0226	509.1486	-0.0592	0.0182	-0.0073	-0.0462	0.0165	0.9585
51.402	24.1059	235.9792	14.755	-80.5562	-2.5701	201.2167	-30.9383	521.9918	-27.2623	206.4702	42.6052	546.8734	-0.0592	0.0182	-0.0073	-0.0462	0.0165	0.9585
51.415	17.305	189.516	11.5661	-64.6043	-2.5199	162.0077	-32.162	565.7787	-31.5346	223.2463	47.2853	590.9947	-0.0592	0.0182	-0.0073	-0.0462	0.0165	0.9585
51.428	10.4032	147.9776	8.7149	-50.3587	-2.7872	126.9229	-33.9744	613.5936	-36.9085	241.4426	53.324	639.1505	-0.0592	0.0182	-0.0073	-0.0462	0.0165	0.9585
51.441	4.0281	112.1504	6.3168	-38.0925	-3.2335	96.6044	-36.3762	662.3443	-43.1014	259.8408	60.436	688.1327	-0.0592	0.0182	-0.0073	-0.0462	0.0165	0.9585
51.454	-1.3047	82.2096	4.3925	-27.8697	-3.679	71.192	-39.2252	708.7858	-49.6994	277.1803	68.1316	734.606	-0.0592	0.0182	-0.0073	-0.0462	0.0165	0.9585
51.467	-5.2731	57.8922	2.9162	-19.5957	-3.9786	50.4795	-42.2431	749.9317	-56.1406	292.3259	75.7192	775.4932	-0.0592	0.0182	-0.0073	-0.0462	0.0165	0.9585
51.48	-7.7151	38.7138	1.8184	-13.0939	-4.0201	34.0826	-45.126	783.3283	-61.9714	304.3656	82.6013	808.2775	-0.0592	0.0182	-0.0073	-0.0462	0.0165	0.9585
51.493	-8.5904	24.0851	1.0423	-8.1519	-3.7537	21.5203	-47.5656	807.3114	-66.7882	312.7041	88.243	831.2614	-0.0592	0.0182	-0.0073	-0.0462	0.0165	0.9585
51.506	-8.0541	13.3763	0.51983	-4.5461	-3.1859	12.2785	-49.2726	821.1379	-70.4001	317.1017	92.3404	843.6849	-0.0592	0.0182	-0.0073	-0.0462	0.0165	0.9585
51.519	-6.5777	6.0462	0.19094	-2.0856	-2.4368	5.8997	-50.0542	825.0663	-72.7204	317.7033	94.7404	845.8041	-0.0592	0.0182	-0.0073	-0.0462	0.0165	0.9585
51.532	-4.8105	1.5661	0.002676	-0.5852	-1.6828	1.9789	-49.8041	820.2941	-73.8201	315.0134	95.483	838.814	-0.0592	0.0182	-0.0073	-0.0462	0.0165	0.9585
51.545	-3.1201	-0.74742	-0.07911	0.18855	-1.031	-0.058451	-48.5415	808.8362	-73.8164	309.8489	94.7064	824.7334	-0.0592	0.0182	-0.0073	-0.0462	0.0165	0.9585
51.558	-1.7113	-1.5607	-0.10202	0.46362	-0.51446	-0.78317	-46.3651	793.2118	-72.8953	303.2154	92.6506	806.0794	-0.0592	0.0182	-0.0073	-0.0462	0.0165	0.9585
51.571	-0.6471	-1.4313	-0.086572	0.42676	-0.14564	-0.68923	-43.4344	776.0354	-71.261	296.1458	89.5951	785.4474	-0.0592	0.0182	-0.0073	-0.0462	0.0165	0.9585
51.584	0.085228	-0.8022	-0.058088	0.22248	0.097086	-0.16485	-39.9285	759.6297	-69.1383	289.5506	85.8386	765.1228	-0.0592	0.0182	-0.0073	-0.0462	0.0165	0.9585
51.597	0.53139	0.036122	-0.024871	-0.052496	0.23115	0.56216	-36.0008	745.8194	-66.7174	284.1405	81.6371	746.8739	-0.0592	0.0182	-0.0073	-0.0462	0.0165	0.9585
51.61	0.77182	0.88121	0.0076678	-0.33305	0.287	1.3067	-31.7863	735.8528	-64.1705	280.3968	77.2161	731.8963	-0.0592	0.0182	-0.0073	-0.0462	0.0165	0.9585
51.623	0.85021	1.6281	0.043446	-0.58289	0.27732	1.9806	-27.3581	730.3798	-61.6437	278.5631	72.7441	720.7848	-0.0592	0.0182	-0.0073	-0.0462	0.0165	0.9585
51.636	0.82902	2.2056	0.079403	-0.77875	0.22467	2.4998	-22.7514	729.4864	-59.2473	278.659	68.3349	713.5936	-0.0592	0.0182	-0.0073	-0.0462	0.0165	0.9585
51.649	0.73699	2.5781	0.12096	-0.90647	0.13391	2.8332	-17.9654	732.7728	-57.0469	280.5137	64.0401	709.9188	-0.0592	0.0182	-0.0073	-0.0462	0.0165	0.9585
51.662	0.59561	2.6981	0.15816	-0.94963	0.025858	2.9253	-12.9872	739.4568	-55.0846	283.8023	59.8838	709.0374	-0.0592	0.0182	-0.0073	-0.0462	0.0165	0.9585
51.675	0.4234	2.5167	0.20729	-0.88822	-0.1068	2.718	-7.8444	748.4447	-53.3775	288.071	55.8805	709.9937	-0.0592	0.0182	-0.0073	-0.0462	0.0165	0.9585
51.688	0.22951	1.9964	0.25409	-0.70471	-0.24573	2.1591	-2.6253	758.3819	-51.9429	292.7604	52.0658	711.6461	-0.0592	0.0182	-0.0073	-0.0462	0.0165	0.9585
51.701	0.03446	1.0706	0.30957	-0.37316	-0.39206	1.1618	2.4945	767.7905	-50.7783	297.258	48.4922	712.8108	-0.0592	0.0182	-0.0073	-0.0462	0.0165	0.9585
51.714	-0.15653	-0.30439	0.34919	0.12389	-0.51686	-0.32278	7.3028	775.2017	-49.8691	300.9564	45.2222	712.3483	-0.0592	0.0182	-0.0073	-0.0462	0.0165	0.9585
51.727	-0.29733	-2.1439	0.37493	0.79266	-0.60081	-2.3221	11.565	779.3495	-49.1665	303.3314	42.2988	709.3187	-0.0592	0.0182	-0.0073	-0.0462	0.0165	0.9585
51.74	-0.31699	-4.351	0.35305	1.5985	-0.58131	-4.733	15.0843	779.3491	-48.621	304.0107	39.7591	703.1083	-0.0592	0.0182	-0.0073	-0.0462	0.0165	0.9585
51.753	-0.11009	-6.6826	0.27787	2.4506	-0.41322	-7.2942	17.7446	774.847	-48.1891	302.8345	37.6254	693.5403	-0.0592	0.0182	-0.0073	-0.0462	0.0165	0.9585
51.766	0.46733	-8.646	0.11932	3.1644	-0.016748	-9.4791	19.5078	766.1435	-47.86	299.9046	35.9227	680.9683	-0.0592	0.0182	-0.0073	-0.0462	0.0165	0.9585
51.779	1.5664	-9.4252	-0.12689	3.4369	0.67052	-10.4039	20.4399	754.144	-47.6646	295.5655	34.6701	666.2136	-0.0592	0.0182	-0.0073	-0.0462	0.0165	0.9585
51.792	3.361	-7.8115	-0.48294	2.82	1.7284	-8.7759	20.6904	740.1616	-47.6626	290.3234	33.8751	650.4001	-0.0592	0.0182	-0.0073	-0.0462	0.0165	0.9585
51.805	5.9533	-2.1701	-0.93937	0.71191	3.1843	-2.8301	20.4914	725.5784	-47.8939	284.7189	33.4979	634.6501	-0.0592	0.0182	-0.0073	-0.0462	0.0165	0.9585
51.818	9.3661	9.4769	-1.4685	-3.614	5.0101	9.5532	20.1062	711.504	-48.3637	279.1949	33.452	619.825	-0.0592	0.0182	-0.0073	-0.0462	0.0165	0.9585
51.831	13.3881	29.2378	-1.9865	-10.927	7.0374	30.6566	19.7721	698.471	-49.0125	273.9742	33.6001	606.2877	-0.0592	0.0182	-0.0073	-0.0462	0.0165	0.9585
51.844	17.4902	58.8955	-2.3549	-21.8747	8.9153	62.4116	19.623	686.2515	-49.7211	268.9833	33.7942	593.7801	-0.0592	0.0182	-0.0073	-0.0462	0.0165	0.9585
51.857	20.6575	99.195	-2.3411	-36.7168	10.0176	105.654	19.6464	673.8667	-50.3193	263.8553	33.8952	581.4459	-0.0592	0.0182	-0.0073	-0.0462	0.0165	0.9585
51.87	21.4094	148.8671	-1.6248	-54.966	9.4553	159.0667	19.7141	659.7998	-50.5973	258.0169	33.7744	568.0075	-0.0592	0.0182	-0.0073	-0.0462	0.0165	0.9585
51.883	18.4164	203.8744	0.1857	-75.1097	6.3193	218.3568	19.6323	642.4283	-50.3273	250.8584	33.3135	552.1159	-0.0592	0.0182	-0.0073	-0.0462	0.0165	0.9585
51.896	11.944	257.5339	3.6374	-94.6614	0.14459	276.3374	19.2752	620.5429	-49.3476	241.9407	32.432	532.7237	-0.0592	0.0182	-0.0073	-0.0462	0.0165	0.9585
51.909	4.0525	303.8195	8.8359	-111.4043	-8.3723	326.346	18.6672	593.8125	-47.6453	231.1675	31.1194	509.4758	-0.0592	0.0182	-0.0073	-0.0462	0.0165	0.9585
51.922	-3.7118	340.768	14.7679	-124.6545	-17.5691	366.0708	17.968	562.8464	-45.3785	218.7909	29.445	482.7781	-0.0592	0.0182	-0.0073	-0.0462	0.0165	0.9585
51.935	-10.4584	369.8589	20.6852	-134.9912	-26.3108	397.0201	17.3988	528.6598	-42.8732	205.2072	27.5847	453.368	-0.0592	0.0182	-0.0073	-0.0462	0.0165	0.9585
51.948	-15.8667	393.6881	25.7315	-143.4117	-33.593	422.0352	17.0912	492.2235	-40.3503	190.7924	25.6577	422.0016	-0.0592	0.0182	-0.0073	-0.0462	0.0165	0.9585
51.961	-20.0621	414.4985	29.5951	-150.7564	-39.1351	443.6443	17.0858	454.3023	-37.8423	175.8486	23.6695	389.2974	-0.0592	0.0182	-0.0073	-0.0462	0.0165	0.9585
